<svg id="Secciones" xmlns="http://www.w3.org/2000/svg" viewBox="0 0 324 120"><defs><style>.cls-1{fill:#06326b;}.cls-2{fill:#ffe82c;}.cls-3{fill:#fff;}</style></defs><title>mercadolibre</title><path class="cls-1" d="M113.88,58.63c0-19.94-24.77-36.19-55.33-36.19S3.23,38.69,3.23,58.63c0,.52,0,1.94,0,2.12C3.22,81.9,24.87,99,58.55,99c33.88,0,55.33-17.12,55.33-38.27Z"/><path class="cls-2" d="M111.76,58.61c0,18.8-23.81,34-53.2,34S5.37,77.41,5.37,58.61s23.81-34,53.19-34S111.76,39.82,111.76,58.61Z"/><path class="cls-3" d="M40.9,47.88s-.56.6-.22,1c.85,1.07,3.44,1.69,6.06,1.1,1.56-.35,3.56-1.94,5.5-3.48,2.1-1.67,4.19-3.34,6.28-4a7.25,7.25,0,0,1,4.58-.12,14.3,14.3,0,0,1,4.18,2.44c3.64,2.74,18.27,15.51,20.8,17.72A127,127,0,0,1,111.47,55c-1.07-6.55-5.06-12.55-11.11-17.47C91.93,41.11,81.63,43,71.55,38a28,28,0,0,0-10.89-2.48c-8,.19-11.45,3.65-15.12,7.31Z"/><path class="cls-3" d="M87.49,64c-.17-.15-17.21-15.06-21.07-18-2.24-1.68-3.48-2.11-4.78-2.27a6.51,6.51,0,0,0-2.28.22,20.58,20.58,0,0,0-6.23,3.71C51,49.38,48.94,51,47.05,51.42a9.83,9.83,0,0,1-6.7-1,2.87,2.87,0,0,1-1.11-1.22A2,2,0,0,1,39.81,47l4.7-5.09c.54-.54,1.09-1.09,1.66-1.63a30.93,30.93,0,0,0-4.29,1,18.64,18.64,0,0,1-5,.93,47.75,47.75,0,0,1-5.1-.8,76.13,76.13,0,0,1-13.57-4.9c-6.68,5-11.15,11.2-12.45,18,1,.25,2.51.71,3.16.86,15.13,3.36,19.84,6.83,20.7,7.55a5,5,0,0,1,7.84.46,5.78,5.78,0,0,1,3.61-1.27,6.8,6.8,0,0,1,2.17.38,5,5,0,0,1,3,2.75,5.05,5.05,0,0,1,2.1-.44,6.31,6.31,0,0,1,2.52.55c2.79,1.2,3.22,3.94,3,6q.3,0,.6,0a6,6,0,0,1,6,6,5.89,5.89,0,0,1-.72,2.83A9.52,9.52,0,0,0,65,81.54a3.41,3.41,0,0,0,2.44-1.06c.15-.22.3-.47.16-.64l-4.27-4.75s-.7-.66-.47-.92.67.12,1,.38c2.17,1.81,4.82,4.55,4.82,4.55s.23.37,1.21.55a4.44,4.44,0,0,0,3.37-.79,4.85,4.85,0,0,0,.74-.76l0,0a2.27,2.27,0,0,0-.12-2.81l-5-5.59s-.71-.66-.47-.93.67.12,1,.38c1.58,1.32,3.81,3.56,6,5.65A4.07,4.07,0,0,0,80,74.67a3.43,3.43,0,0,0,1.77-3.12,3.62,3.62,0,0,0-1-2.08l-6.81-6.84s-.72-.62-.46-.93.67.12,1,.37c2.17,1.82,8,7.2,8,7.2a4.12,4.12,0,0,0,4.61-.09,3.09,3.09,0,0,0,1.52-2.44A3.61,3.61,0,0,0,87.49,64Z"/><path class="cls-3" d="M54.47,72.64a14.37,14.37,0,0,0-2.36.52c-.08,0,.06-.48.16-.72s1.49-4.43-1.89-5.88a4,4,0,0,0-4.73.7c-.14.15-.2.14-.22-.05a3.73,3.73,0,0,0-2.63-3.47A5.11,5.11,0,0,0,37,65.8a3.7,3.7,0,1,0-1.1,3.14s0,.06,0,.13a4.87,4.87,0,0,0,3,5.61,3.63,3.63,0,0,0,3.58-.55c.29-.21.34-.12.3.16-.13.85,0,2.69,2.61,3.73a3.29,3.29,0,0,0,3.88-.72c.33-.3.42-.25.43.22a4.67,4.67,0,1,0,4.67-4.88Z"/><path class="cls-1" d="M88.15,62.18C82.9,57.6,70.77,47.05,67.48,44.58a14.68,14.68,0,0,0-4.28-2.49,7.42,7.42,0,0,0-2.1-.33,9.06,9.06,0,0,0-2.67.45c-2.13.68-4.24,2.36-6.29,4l-.1.09c-1.91,1.51-3.88,3.08-5.37,3.41a8.86,8.86,0,0,1-2,.22c-1.66,0-3.16-.48-3.73-1.2-.09-.12,0-.31.19-.58l0,0,4.61-5c3.62-3.61,7-7,14.9-7.21h.39a28,28,0,0,1,10.34,2.44A31.93,31.93,0,0,0,85.5,41.72,36.76,36.76,0,0,0,101,38c-.6-.51-1.23-1-1.87-1.48a34,34,0,0,1-13.58,3.08,30,30,0,0,1-13.19-3.17,29.53,29.53,0,0,0-11.25-2.66h-.44A19.53,19.53,0,0,0,47.8,38.35a25.54,25.54,0,0,0-6.4,1.17,17.37,17.37,0,0,1-4.51.86c-.58,0-1.62-.05-1.71-.05-1.61,0-9.75-2-16.22-4.5-.66.47-1.29,1-1.91,1.45,6.76,2.77,15,4.91,17.58,5.08.72,0,1.49.13,2.26.13a19,19,0,0,0,5.09-1c1-.27,2.06-.57,3.2-.79l-.91.9-4.69,5.08a2.33,2.33,0,0,0-.65,2.59,3.24,3.24,0,0,0,1.24,1.37,9.77,9.77,0,0,0,5,1.26,9.56,9.56,0,0,0,2-.2c2-.45,4-2.09,6.22-3.82,1.74-1.39,4.21-3.15,6.11-3.66a6.57,6.57,0,0,1,1.7-.23,3.17,3.17,0,0,1,.44,0c1.25.16,2.46.59,4.62,2.21,3.85,2.89,20.89,17.8,21.06,17.94a3.28,3.28,0,0,1,1,2.51,2.73,2.73,0,0,1-1.36,2.18,4.16,4.16,0,0,1-2.24.69,3.6,3.6,0,0,1-2-.57c-.06,0-5.9-5.41-8-7.2a1.77,1.77,0,0,0-1-.54.55.55,0,0,0-.45.21c-.34.41,0,1,.49,1.37l6.82,6.86a3.16,3.16,0,0,1,.94,1.84,3.12,3.12,0,0,1-1.62,2.83,4.39,4.39,0,0,1-2.42.8,3.53,3.53,0,0,1-1.94-.59l-1-1c-1.79-1.76-3.63-3.58-5-4.71a1.75,1.75,0,0,0-1-.53.57.57,0,0,0-.43.18c-.16.18-.26.48.12,1a4.39,4.39,0,0,0,.34.39l5,5.59a1.89,1.89,0,0,1,.11,2.38l-.17.23a6.23,6.23,0,0,1-.46.44,4,4,0,0,1-2.44.77,4.57,4.57,0,0,1-.67-.05,1.69,1.69,0,0,1-1-.42l-.06-.06c-.27-.28-2.78-2.84-4.86-4.57a1.7,1.7,0,0,0-1-.52.56.56,0,0,0-.45.2c-.42.45.2,1.12.46,1.37L67.29,80a1.29,1.29,0,0,1-.16.29,3.1,3.1,0,0,1-2.21.91,3.43,3.43,0,0,1-.56,0A9.65,9.65,0,0,1,60.2,80a6.26,6.26,0,0,0,.61-2.69A6.35,6.35,0,0,0,54.48,71h-.23c.11-1.6-.11-4.62-3.21-6a6.75,6.75,0,0,0-2.65-.58,5.47,5.47,0,0,0-1.94.35,5.34,5.34,0,0,0-3.1-2.63,6.84,6.84,0,0,0-2.27-.4,6,6,0,0,0-3.54,1.13,5.33,5.33,0,0,0-7.95-.44C28.27,61.45,23,58.12,9,54.93c-.68-.15-2.24-.6-3.19-.88a22.43,22.43,0,0,0-.36,2.3l3.09.74c14.33,3.18,19.07,6.49,19.87,7.12a5.37,5.37,0,0,0,5.94,7.34,6.27,6.27,0,0,0,4,4.68,5.44,5.44,0,0,0,1.91.37,5.17,5.17,0,0,0,1.23-.15,5.65,5.65,0,0,0,3.33,3.12A5.76,5.76,0,0,0,47,80a4.84,4.84,0,0,0,1.64-.29,6.31,6.31,0,0,0,10.39,2,11.86,11.86,0,0,0,5.36,1.6,5.34,5.34,0,0,0,.81,0,4.93,4.93,0,0,0,3.64-1.78,3.13,3.13,0,0,0,.22-.36,6,6,0,0,0,1.72.27,5.76,5.76,0,0,0,3.46-1.24,4.73,4.73,0,0,0,2-3,.09.09,0,0,0,0-.05,5.64,5.64,0,0,0,1.16.12A6.45,6.45,0,0,0,81,76.12a5.1,5.1,0,0,0,2.55-4.57,5.83,5.83,0,0,0,1.18.12,6.08,6.08,0,0,0,3.33-1,4.87,4.87,0,0,0,2.32-3.77,5.09,5.09,0,0,0-.74-3,136.7,136.7,0,0,1,22.11-6.92,21.92,21.92,0,0,0-.31-2.3A127.07,127.07,0,0,0,88.15,62.18ZM54.47,81.64a4.29,4.29,0,0,1-4.32-4.13c0-.2,0-.73-.48-.73a.8.8,0,0,0-.52.28A3.09,3.09,0,0,1,47,78a3.56,3.56,0,0,1-1.4-.31c-2.47-1-2.51-2.69-2.4-3.38a.68.68,0,0,0-.09-.52L43,73.68h-.16a.72.72,0,0,0-.43.18,3.61,3.61,0,0,1-2.1.74,3.33,3.33,0,0,1-1.17-.23,4.53,4.53,0,0,1-2.83-5.26.49.49,0,0,0-.14-.43l-.23-.19-.22.21a3.33,3.33,0,0,1-2.33.94,3.38,3.38,0,1,1,3.33-3.8l.12.91.5-.77a4.94,4.94,0,0,1,3.93-2.15,5.1,5.1,0,0,1,1.46.23,3.41,3.41,0,0,1,2.39,3.18c0,.44.35.46.41.46a.57.57,0,0,0,.39-.2,3.39,3.39,0,0,1,2.49-1,4.7,4.7,0,0,1,1.86.42c3.18,1.36,1.74,5.4,1.72,5.44-.27.67-.28,1,0,1.14l.13.06h.09a2.44,2.44,0,0,0,.62-.17A5.41,5.41,0,0,1,54.47,73h0a4.34,4.34,0,1,1,0,8.67Z"/><path class="cls-1" d="M136.15,38.68V55h-6.5V40c0-7.27,3.66-10.88,10.93-10.88,3.28,0,5.78.72,7.61,2.16,1.83-1.39,4.33-2.07,7.61-2.07,7.27,0,10.88,3.61,10.83,10.89v15h-3.32c-2.12-.14-3.18-1.15-3.18-3.18V38.78c-.14-2.65-1.59-4-4.43-4s-4.28,1.3-4.33,4V55h-6.45V38.68c-.15-2.65-1.59-4-4.43-4S136.2,36,136.15,38.68Z"/><path class="cls-1" d="M198,41.91c.2-8.24,4.26-12.81,12.79-12.81h1.93v6.64l-3,.07c-3.56,0-5.24,2.29-5.24,6V55.05H198Z"/><path class="cls-1" d="M248.61,37.09h-6c.22-4.92,2.7-8.2,10-8.2,7,0,10.6,2.31,10.74,7v8.67c0,7-4.24,10.16-11.12,10.64-6.12.48-10.36-2.36-10.36-8,.15-6.11,4.58-7.75,11-8.37,2.75-.34,4.14-1.16,4.14-2.56s-1.49-2.13-4.14-2.16C249.91,34.09,249,35.88,248.61,37.09Zm8.54,7.2V42.2A28.27,28.27,0,0,1,252,43.47c-2.55.48-3.85,1.68-3.85,3.56a2.86,2.86,0,0,0,3.23,3C255,50,257.15,47.9,257.15,44.29Z"/><path class="cls-1" d="M290.83,21v23c0,7.65-4,11.46-11.94,11.41S267,50.91,267,42.44c0-8.67,3.37-13.1,10.16-13.34a8,8,0,0,1,7.27,3.95V24.93l0-.72C286.61,21.05,290.83,21,290.83,21ZM273.64,42.15c-.05,5.15,1.68,7.75,5.34,7.75s5.49-2.6,5.49-7.75c-.14-4.92-1.92-7.32-5.39-7.32S273.83,37.23,273.64,42.15Z"/><path class="cls-1" d="M133.78,58.93h1.68V92.67h-6.4V63.05C129.06,62.09,131.05,58.93,133.78,58.93Z"/><path class="cls-1" d="M168.67,66.42a8,8,0,0,0-7.22,4V58.93h-.72a6.29,6.29,0,0,0-5.68,3.14V81.26c0,7.65,4,11.46,11.94,11.41s11.85-4.43,11.85-12.91C178.84,71.1,175.47,66.66,168.67,66.42ZM166.8,87.23c-3.66,0-5.4-2.6-5.35-7.76.2-4.91,2-7.32,5.44-7.32s5.25,2.41,5.4,7.32C172.29,84.63,170.46,87.23,166.8,87.23Z"/><path class="cls-1" d="M178.05,48.56a7,7,0,0,0,8,.45,4.25,4.25,0,0,0,1.82-2.18h6a11.42,11.42,0,0,1-4.42,6.38,13,13,0,0,1-7.2,1.92A14.27,14.27,0,0,1,177,54.2a11.12,11.12,0,0,1-4-2.67,11.92,11.92,0,0,1-2.52-4.13,15.16,15.16,0,0,1-.89-5.28,14.43,14.43,0,0,1,.92-5.18,12,12,0,0,1,2.59-4.15,12.24,12.24,0,0,1,4-2.77,12.87,12.87,0,0,1,5.16-1,11.76,11.76,0,0,1,5.52,1.22,10.92,10.92,0,0,1,3.86,3.29,13.54,13.54,0,0,1,2.19,4.7,17.4,17.4,0,0,1,.48,5.52H176.37A7,7,0,0,0,178.05,48.56Zm7.71-13.06A4.79,4.79,0,0,0,182,34.15a5.93,5.93,0,0,0-2.72.56,5.06,5.06,0,0,0-2.64,3.09,8.09,8.09,0,0,0-.31,1.63h11.09A7.91,7.91,0,0,0,185.76,35.5Z"/><path class="cls-1" d="M227.17,34.07a4.88,4.88,0,0,0-2.77.75,6.14,6.14,0,0,0-1.82,1.94,8.61,8.61,0,0,0-1,2.62,14.56,14.56,0,0,0-.29,2.84,13.77,13.77,0,0,0,.29,2.76,8.36,8.36,0,0,0,.95,2.55,5.36,5.36,0,0,0,1.77,1.87,4.87,4.87,0,0,0,2.71.72,5.06,5.06,0,0,0,3.81-1.38A6.55,6.55,0,0,0,232.5,45h6.64a11.38,11.38,0,0,1-3.87,7.62,12.57,12.57,0,0,1-8.2,2.61,13.66,13.66,0,0,1-5.16-.94,11.35,11.35,0,0,1-4-2.64,12.31,12.31,0,0,1-2.58-4,14.15,14.15,0,0,1-.92-5.17,16.79,16.79,0,0,1,.85-5.4,12.17,12.17,0,0,1,2.5-4.32,11.51,11.51,0,0,1,4-2.84,13.71,13.71,0,0,1,5.44-1,15.7,15.7,0,0,1,4.29.59,11.12,11.12,0,0,1,3.68,1.77,9.37,9.37,0,0,1,2.65,2.95,9.6,9.6,0,0,1,1.16,4.2h-6.74Q231.59,34.07,227.17,34.07Z"/><path class="cls-1" d="M295.76,36.67a11.49,11.49,0,0,1,6.69-6.84,14.3,14.3,0,0,1,5.33-.95,14.49,14.49,0,0,1,5.36.95,11.65,11.65,0,0,1,4.1,2.67,11.8,11.8,0,0,1,2.62,4.17,15.46,15.46,0,0,1,.92,5.45,15.23,15.23,0,0,1-.92,5.43,11.89,11.89,0,0,1-2.62,4.15,11.32,11.32,0,0,1-4.1,2.64,14.7,14.7,0,0,1-5.36.92,14.5,14.5,0,0,1-5.33-.92,11.37,11.37,0,0,1-4.07-2.64,11.75,11.75,0,0,1-2.62-4.15,15,15,0,0,1-.92-5.43A15.24,15.24,0,0,1,295.76,36.67ZM302,45.06a8,8,0,0,0,1,2.57,5.29,5.29,0,0,0,1.86,1.81,5.65,5.65,0,0,0,2.91.68,5.76,5.76,0,0,0,2.94-.68,5.21,5.21,0,0,0,1.89-1.81,7.73,7.73,0,0,0,1-2.57,14.3,14.3,0,0,0,.29-2.94,14.64,14.64,0,0,0-.29-3,7.49,7.49,0,0,0-1-2.57,5.56,5.56,0,0,0-1.89-1.81,5.66,5.66,0,0,0-2.94-.71,5.55,5.55,0,0,0-2.91.71A5.65,5.65,0,0,0,303,36.59a7.71,7.71,0,0,0-1,2.57,15.39,15.39,0,0,0-.29,3A15,15,0,0,0,302,45.06Z"/><path class="cls-1" d="M182.6,79.45c.2-8.23,4.26-12.81,12.79-12.81h1.93v6.64l-3,.07c-3.56,0-5.24,2.3-5.24,6V92.6h-6.5Z"/><path class="cls-1" d="M207.45,86.1a6.12,6.12,0,0,0,4.42,1.49,6,6,0,0,0,3.55-1,4.29,4.29,0,0,0,1.83-2.18h6a11.31,11.31,0,0,1-4.42,6.38,12.9,12.9,0,0,1-7.2,1.92,14.27,14.27,0,0,1-5.28-.93,10.87,10.87,0,0,1-4-2.67A12,12,0,0,1,199.84,85a15.17,15.17,0,0,1-.88-5.29,14.43,14.43,0,0,1,.91-5.18,12,12,0,0,1,6.6-6.91,12.87,12.87,0,0,1,5.16-1,11.88,11.88,0,0,1,5.52,1.22A11.15,11.15,0,0,1,221,71.07a13.75,13.75,0,0,1,2.18,4.71,17.4,17.4,0,0,1,.48,5.52H205.77Q205.92,84.62,207.45,86.1ZM215.16,73a4.78,4.78,0,0,0-3.72-1.34,5.89,5.89,0,0,0-2.71.55A5.11,5.11,0,0,0,207,73.62a4.9,4.9,0,0,0-.91,1.73,8,8,0,0,0-.32,1.63h11.09A8,8,0,0,0,215.16,73Z"/><rect class="cls-1" x="142.33" y="58.93" width="6.41" height="5.83"/><rect class="cls-1" x="142.33" y="67.7" width="6.41" height="24.97"/></svg>